<svg xmlns="http://www.w3.org/2000/svg" width="44" height="39" viewBox="0 0 44 39" fill="none" stroke="#D8B24C" stroke-width="0.7" stroke-linecap="round" stroke-linejoin="round"><path d="M35.47 23.34C12.16 17.84 21.88 6.01 21.88 6.01C21.88 6.01 25.48 9.45 21.96 16.55"/><path d="M20.61 18.65C18.38 21.37 14.3 22.98 8.48 23.33"/><path d="M8.48 18.01C31.78 23.51 22.07 35.34 22.07 35.34C22.07 35.34 18.46 31.9 21.99 24.8"/><path d="M23.53 22.47C25.8 19.89 29.81 18.36 35.47 18.02"/><path d="M5.64 28.7C4.11 26.2 3.24 23.32 3.24 20.24C3.24 17.53 3.92 14.95 5.14 12.66"/><path d="M38.86 12.66C40.08 14.95 40.76 17.52 40.76 20.24C40.76 23.32 39.89 26.2 38.36 28.7"/><path d="M13.1 5.15C15.81 3.75 18.94 2.95 22.28 2.95C25.22 2.95 28.01 3.57 30.49 4.69"/><path d="M30.49 35.8C28.01 36.91 25.22 37.54 22.28 37.54C18.94 37.54 15.81 36.74 13.1 35.33"/></svg>
